<svg width="28" height="28" viewBox="0 0 28 28" fill="none" xmlns="http://www.w3.org/2000/svg">
<rect width="28" height="28" rx="3.73333" fill="white"/>
<path d="M6.81926 18.9931C6.41288 18.2724 6.10808 17.5327 5.90489 16.7741C5.70169 16.0154 5.6001 15.2378 5.6001 14.4412C5.6001 11.8998 6.45906 9.73764 8.17697 7.95483C9.89489 6.17201 11.9915 5.2806 14.4668 5.2806H14.6607L12.8874 3.45985L14.4391 1.8667L18.8724 6.41857L14.4391 10.9704L12.8874 9.37729L14.6607 7.55654H14.4668C12.6195 7.55654 11.0494 8.2251 9.75635 9.56221C8.46329 10.8993 7.81676 12.5257 7.81676 14.4412C7.81676 14.9344 7.87218 15.418 7.98301 15.8922C8.09385 16.3663 8.2601 16.831 8.48176 17.2862L6.81926 18.9931ZM14.4945 26.902L10.0611 22.3501L14.4945 17.7983L16.0461 19.3914L14.2728 21.2122H14.4668C16.314 21.2122 17.8841 20.5436 19.1772 19.2065C20.4702 17.8694 21.1168 16.243 21.1168 14.3274C21.1168 13.8343 21.0613 13.3507 20.9505 12.8765C20.8397 12.4024 20.6734 11.9377 20.4518 11.4825L22.1143 9.77558C22.5207 10.4963 22.8254 11.236 23.0286 11.9946C23.2318 12.7533 23.3334 13.5309 23.3334 14.3274C23.3334 16.8689 22.4745 19.031 20.7566 20.8139C19.0386 22.5967 16.942 23.4881 14.4668 23.4881H14.2728L16.0461 25.3088L14.4945 26.902Z" fill="#FF9A55"/>
</svg>
